#!OML:ASF X:\für Bonn\!DataBase\2005_08_11_Bastian_Final\c3d\Bastian.ASF
:FULLY-SPECIFIED
:DEGREES
71
root 0.562391 18.1868 1.25273 172.188 -0.702254 -175.794
lowerback 9.18426 -2.2534 2.54815
upperback 3.86629 -3.11992 0.19305
thorax -1.25061 -1.68402 -0.91033
lowerneck 10.5047 -4.60962 -2.72755
upperneck -9.10976 -5.2128 10.6211
head -4.07684 -3.00785 4.04203
rclavicle -1.03865e-014 -5.56597e-015
rhumerus -53.1498 19.903 -31.6268
rradius 35.35
rwrist -69.078
rhand -55.5238 -12.5021
rfingers 7.12502
rthumb -27.881 -40.4528
lclavicle -1.03865e-014 -5.56597e-015
lhumerus -412.191 -52.1526 389.716
lradius 27.4101
lwrist 55.7566
lhand -53.8997 32.2478
lfingers 7.12502
lthumb -26.3273 60.4406
rfemur 2.75137 0.626667 24.1919
rtibia 31.7854
rfoot -9.50394 -3.46397
rtoes -1.68586
lfemur 4.54822 3.67017 -11.9972
ltibia 28.0102
lfoot -1.56459 -6.26185
ltoes -24.0907
72
root 0.542132 18.1508 1.31224 172.35 -1.17239 -175.828
lowerback 9.60506 -2.25213 2.75348
upperback 4.11656 -3.13138 0.323762
thorax -1.22385 -1.70455 -0.877039
lowerneck 9.07071 -4.73795 -2.85067
upperneck -9.45364 -5.39714 10.4298
head -3.92827 -3.05191 3.97364
rclavicle 3.57812e-015 -2.78299e-015
rhumerus -52.7221 17.8231 -36.5297
rradius 33.3709
rwrist -68.1035
rhand -55.0146 -12.0816
rfingers 7.12502
rthumb -27.3941 -40.1103
lclavicle 3.57812e-015 -2.78299e-015
lhumerus -410.565 -48.5282 392.691
lradius 26.0734
lwrist 53.2385
lhand -52.2477 28.9925
lfingers 7.12502
lthumb -24.745 57.412
rfemur 2.47187 0.61025 24.2093
rtibia 31.8443
rfoot -10.3795 -4.14564
rtoes -1.90274
lfemur 4.21467 3.5049 -12.2196
ltibia 27.9886
lfoot -2.48338 -6.42207
ltoes -23.5561
73
root 0.520858 18.1122 1.37511 172.502 -1.65166 -175.882
lowerback 10.0675 -2.25525 2.98957
upperback 4.35958 -3.14528 0.427734
thorax -1.22926 -1.72686 -0.885801
lowerneck 7.51004 -4.87896 -3.00233
upperneck -9.69009 -5.58435 10.3005
head -3.72255 -3.08935 3.92099
rclavicle 1.44367e-014 -9.14409e-015
rhumerus -52.0597 15.9204 -41.3823
rradius 31.6179
rwrist -67.3474
rhand -54.4219 -11.4285
rfingers 7.12502
rthumb -26.8271 -39.5455
lclavicle 1.44367e-014 -9.14409e-015
lhumerus -408.319 -44.4773 395.087
lradius 24.6356
lwrist 50.4046
lhand -50.7186 26.1133
lfingers 7.12502
lthumb -23.2787 54.726
rfemur 2.17409 0.580452 24.1827
rtibia 31.9223
rfoot -11.2083 -4.78952
rtoes -2.11513
lfemur 3.89882 3.37182 -12.4618
ltibia 27.9612
lfoot -3.38183 -6.61515
ltoes -22.9105
74
root 0.500346 18.072 1.4476 172.635 -2.12125 -175.934
lowerback 10.6436 -2.25883 3.24861
upperback 4.60238 -3.15633 0.509209
thorax -1.2977 -1.74987 -0.925306
lowerneck 5.66237 -5.05559 -3.16292
upperneck -9.71967 -5.80537 10.2449
head -3.40136 -3.13031 3.8775
rclavicle -5.20816e-014 1.82882e-014
rhumerus -51.0098 13.9252 -45.974
rradius 30.007
rwrist -66.472
rhand -53.6787 -10.7641
rfingers 7.12502
rthumb -26.1158 -38.9883
lclavicle -5.20816e-014 1.82882e-014
lhumerus -406.193 -40.6896 397.665
lradius 23.3638
lwrist 48.1434
lhand -49.5257 23.893
lfingers 7.12502
lthumb -22.1338 52.646
rfemur 1.83684 0.472529 24.1339
rtibia 32.0299
rfoot -11.9195 -5.32361
rtoes -2.47038
lfemur 3.57749 3.28004 -12.6956
ltibia 27.9395
lfoot -4.32726 -6.82218
ltoes -22.4406
75
root 0.481824 18.0328 1.53176 172.76 -2.59753 -176.01
lowerback 11.3042 -2.28236 3.51904
upperback 4.87959 -3.19674 0.561889
thorax -1.37754 -1.7906 -0.993976
lowerneck 3.505 -5.24632 -3.33596
upperneck -9.65121 -6.018 10.2502
head -2.99774 -3.15171 3.84032
rclavicle -3.20292e-014 1.88845e-014
rhumerus -49.2891 11.4136 -49.9224
rradius 28.2741
rwrist -64.7431
rhand -52.5854 -10.2012
rfingers 7.12502
rthumb -25.0686 -38.5759
lclavicle -3.20292e-014 1.88845e-014
lhumerus -404.464 -37.5516 400.725
lradius 22.4511
lwrist 46.8915
lhand -48.754 22.4806
lfingers 7.12502
lthumb -21.3928 51.3196
rfemur 1.44222 0.378873 24.0563
rtibia 32.1718
rfoot -12.5898 -5.85493
rtoes -2.54267
lfemur 3.20848 3.18615 -12.9542
ltibia 27.9373
lfoot -5.29125 -7.01202
ltoes -22.0417
76
root 0.467767 17.9935 1.62517 172.919 -3.05292 -176.086
lowerback 11.9498 -2.29935 3.83186
upperback 5.21011 -3.23311 0.568623
thorax -1.39562 -1.83055 -1.13627
lowerneck 1.168 -5.468 -3.4126
upperneck -9.34133 -6.27557 9.98462
head -2.78168 -3.1501 4.08862
rclavicle 2.70844e-015 -5.96354e-016
rhumerus -47.2812 8.91143 -53.7021
rradius 26.7032
rwrist -62.7639
rhand -51.3839 -9.78458
rfingers 7.12502
rthumb -23.9168 -38.3152
lclavicle 2.70844e-015 -5.96354e-016
lhumerus -402.884 -35.016 404.063
lradius 21.8688
lwrist 46.5091
lhand -48.4043 21.8898
lfingers 7.12502
lthumb -21.0568 50.7666
rfemur 0.953098 0.179878 23.9579
rtibia 32.3396
rfoot -13.2187 -6.25208
rtoes -2.94624
lfemur 2.73374 3.38679 -13.15
ltibia 27.9735
lfoot -6.2444 -7.38684
ltoes -22.1773
77
root 0.456437 17.9528 1.7261 173.078 -3.49185 -176.137
lowerback 12.608 -2.31274 4.13706
upperback 5.59153 -3.27618 0.612991
thorax -1.36196 -1.87808 -1.23509
lowerneck -1.19885 -5.6921 -3.5984
upperneck -9.40373 -6.44439 10.1316
head -2.33904 -3.13223 4.07025
rclavicle -1.39149e-014 -5.96354e-016
rhumerus -45.4013 7.84532 -58.1234
rradius 25.8739
rwrist -61.9008
rhand -50.5544 -9.75476
rfingers 7.12502
rthumb -23.1211 -38.3874
lclavicle -1.39149e-014 -5.96354e-016
lhumerus -401.464 -33.0492 407.78
lradius 21.589
lwrist 46.8707
lhand -48.3279 21.9644
lfingers 7.12502
lthumb -20.9835 50.8493
rfemur 0.409941 -0.0820815 23.8702
rtibia 32.5403
rfoot -13.8106 -6.54317
rtoes -3.30811
lfemur 2.19519 3.73493 -13.3046
ltibia 28.0312
lfoot -7.202 -7.80157
ltoes -22.6038
78
root 0.448086 17.9109 1.82767 173.221 -4.03141 -176.165
lowerback 13.2455 -2.33112 4.49777
upperback 6.01094 -3.32807 0.632772
thorax -1.27827 -1.93048 -1.39106
lowerneck -3.48648 -5.9769 -3.67956
upperneck -9.59455 -6.65084 10.2739
head -1.96366 -3.12526 4.04232
rclavicle 2.73826e-014 -1.31198e-014
rhumerus -43.515 7.72595 -62.8549
rradius 25.5014
rwrist -61.6268
rhand -50.0342 -10.0622
rfingers 7.12502
rthumb -22.6219 -38.7566
lclavicle 2.73826e-014 -1.31198e-014
lhumerus -400.297 -32.2284 411.979
lradius 21.8593
lwrist 48.3921
lhand -48.6401 22.8169
lfingers 7.12502
lthumb -21.2833 51.6682
rfemur -0.125039 -0.447996 23.7972
rtibia 32.7676
rfoot -14.4262 -6.8363
rtoes -3.71687
lfemur 1.61851 4.12189 -13.4165
ltibia 28.1191
lfoot -8.13983 -8.3055
ltoes -23.2247
79
root 0.439775 17.8679 1.93157 173.369 -4.51769 -176.217
lowerback 13.8905 -2.30169 4.85216
upperback 6.43174 -3.31911 0.644629
thorax -1.18988 -1.95333 -1.56053
lowerneck -5.68738 -6.31104 -3.71711
upperneck -9.8704 -6.88947 10.4308
head -1.63823 -3.12559 4.02011
rclavicle -1.96673e-014 1.67973e-014
rhumerus -41.1589 7.51202 -67.1129
rradius 24.986
rwrist -60.6284
rhand -49.633 -10.563
rfingers 7.12502
rthumb -22.2368 -39.3038
lclavicle -1.96673e-014 1.67973e-014
lhumerus -398.483 -31.0195 415.701
lradius 21.8486
lwrist 49.1062
lhand -48.8484 23.849
lfingers 7.12502
lthumb -21.4834 52.6777
rfemur -0.694701 -0.873325 23.67
rtibia 33.0221
rfoot -15.0273 -6.98296
rtoes -4.16415
lfemur 1.04537 4.42675 -13.5691
ltibia 28.2089
lfoot -8.99076 -8.70934
ltoes -22.9347
80
root 0.428497 17.8246 2.0397 173.522 -4.82971 -176.227
lowerback 14.5911 -2.2054 5.25313
upperback 6.83268 -3.21288 0.667412
thorax -1.14194 -1.92888 -1.75737
lowerneck -7.71499 -6.66324 -3.63237
upperneck -10.295 -7.12171 10.5602
head -1.40508 -3.11914 3.97875
rclavicle 5.46658e-016 1.09332e-015
rhumerus -38.5913 7.94124 -71.1879
rradius 24.6441
rwrist -59.7914
rhand -49.4706 -11.1616
rfingers 7.12502
rthumb -22.0809 -39.9209
lclavicle 5.46658e-016 1.09332e-015
lhumerus -396.393 -30.1791 419.401
lradius 21.6753
lwrist 49.7884
lhand -49.0651 25.0281
lfingers 7.12502
lthumb -21.6916 53.8329
rfemur -1.30539 -1.20883 23.5824
rtibia 33.288
rfoot -15.5958 -7.04125
rtoes -4.54742
lfemur 0.50092 4.71971 -13.7019
ltibia 28.2808
lfoot -9.79138 -8.95694
ltoes -22.3413
81
root 0.417721 17.7801 2.14422 173.672 -5.10588 -176.251
lowerback 15.2766 -2.06853 5.57932
upperback 7.20457 -3.05673 0.69444
thorax -1.1046 -1.87983 -1.91781
lowerneck -9.577 -7.01752 -3.35714
upperneck -10.7803 -7.35899 10.576
head -1.23896 -3.11786 3.87104
rclavicle -3.19981e-014 9.44227e-015
rhumerus -35.835 9.38165 -75.1343
rradius 24.3127
rwrist -59.6371
rhand -49.5766 -11.6282
rfingers 7.12502
rthumb -22.1827 -40.3754
lclavicle -3.19981e-014 9.44227e-015
lhumerus -394.806 -31.1709 423.783
lradius 22.0827
lwrist 52.0352
lhand -49.5632 26.4694
lfingers 7.12502
lthumb -22.1698 55.2181
rfemur -1.90271 -1.54056 23.4773
rtibia 33.5585
rfoot -16.159 -7.05349
rtoes -4.93959
lfemur -0.00603863 4.99035 -13.8521
ltibia 28.3133
lfoot -10.5157 -9.17333
ltoes -21.4445
82
root 0.406687 17.7372 2.24067 173.833 -5.34642 -176.28
lowerback 15.9155 -1.92663 5.86532
upperback 7.53346 -2.89104 0.716891
thorax -1.08151 -1.82409 -2.06511
lowerneck -11.2817 -7.33774 -2.96901
upperneck -11.2903 -7.55871 10.5357
head -1.12479 -3.10132 3.73209
rclavicle -4.10809e-015 1.02141e-014
rhumerus -32.927 11.8702 -78.8274
rradius 23.9956
rwrist -60.279
rhand -49.8598 -11.7854
rfingers 7.12502
rthumb -22.4546 -40.5001
lclavicle -4.10809e-015 1.02141e-014
lhumerus -393.567 -33.4512 428.415
lradius 22.9634
lwrist 55.1688
lhand -50.2459 27.9752
lfingers 7.12502
lthumb -22.8251 56.6446
rfemur -2.48177 -1.85563 23.373
rtibia 33.8309
rfoot -16.7318 -7.05104
rtoes -5.55297
lfemur -0.460201 5.23691 -14.0126
ltibia 28.2891
lfoot -11.2669 -9.34076
ltoes -20.6168
